Audio : English

Subtitle : Romanian

General

CompleteName                     : C:\AVI\Titanic (1997) DVDRip DivX NicoLiV (RO)\Titanic CD1.avi
Format                           : AVI
Format/Info                      : Audio Video Interleave
Format_Profile                   : OpenDML
FileSize/String                  : 1.40 GiB
Duration/String                  : 1h 43mn
OverallBitRate/String            : 1 938 Kbps
Encoded_Application              : MEncoder version Beta 4.4.5 building on 20110111
Encoded_Library/String           : [= DigiArty videodll!

Video

ID/String                        : 0
Format                           : MPEG-4 Visual
CodecID                          : DX50
CodecID/Hint                     : DivX 5
Duration/String                  : 1h 43mn
BitRate/String                   : 1 795 Kbps
Width/String                     : 720 pixels
Height/String                    : 404 pixels
DisplayAspectRatio/String        : 16:9
FrameRate/String                 : 25.000 fps
ColorSpace                       : YUV
ChromaSubsampling                : 4:2:0
Compression_Mode/String          : Lossy
Bits-(Pixel*Frame)               : 0.247
StreamSize/String                : 1.30 GiB (93%)

Audio

ID/String                        : 1
Format                           : MPEG Audio
CodecID                          : 55
CodecID/Hint                     : MP3
Duration/String                  : 1h 43mn
BitRate/String                   : 128 Kbps
Channel(s)/String                : 2 channels
SamplingRate/String              : 48.0 KHz
Compression_Mode/String          : Lossy
StreamSize/String                : 113 KiB (0%)
Alignment/String                 : Aligned on interleaves
Interleave_Duration/String       : 20643 ms (516.06 video frames)
Interleave_Preload/String        : 504 ms

General

Complete name                    : C:\AVI\Titanic (1997) DVDRip DivX NicoLiV (RO)\Titanic CD2.avi
Format                           : AVI
Format/Info                      : Audio Video Interleave
Format profile                   : OpenDML
File size                        : 1.13 GiB
Duration                         : 1h 23mn
Overall bit rate                 : 1 942 Kbps
Writing application              : MEncoder version Beta 4.4.5 building on 20110111
Writing library                  : [= DigiArty videodll!

Video

ID                               : 0
Format                           : MPEG-4 Visual
Format profile                   : Simple@L1
Format settings, BVOP            : No
Format settings, QPel            : No
Format settings, GMC             : No warppoints
Format settings, Matrix          : Default (H.263)
Codec ID                         : DX50
Codec ID/Hint                    : DivX 5
Duration                         : 1h 23mn
Bit rate                         : 1 797 Kbps
Width                            : 720 pixels
Height                           : 404 pixels
Display aspect ratio             : 16:9
Frame rate                       : 25.000 fps
Color space                      : YUV
Chroma subsampling               : 4:2:0
Bit depth                        : 8 bits
Scan type                        : Progressive
Compression mode                 : Lossy
Bits/(Pixel*Frame)               : 0.247
Stream size                      : 1.05 GiB (93%)
Writing library                  : DigiArty AV Encoder Core

Audio

ID                               : 1
Format                           : MPEG Audio
Codec ID                         : 55
Codec ID/Hint                    : MP3
Duration                         : 1h 23mn
Bit rate                         : 128 Kbps
Channel(s)                       : 2 channels
Sampling rate                    : 48.0 KHz
Compression mode                 : Lossy
Stream size                      : 2.24 MiB (0%)
Alignment                        : Aligned on interleaves
Interleave, duration             : 816 ms (20.39 video frames)
Interleave, preload duration     : 504 ms

